<svg xmlns="http://www.w3.org/2000/svg" viewBox="0 0 83.73 82.62"><defs><style>.cls-1{fill:#1d1d1b;}.cls-2{fill:#fff;}</style></defs><title>mono</title><g id="Capa_2" data-name="Capa 2"><g id="Capa_1-2" data-name="Capa 1"><path class="cls-1" d="M4.72,20.2A18.89,18.89,0,0,1,9.77,6.9,18.69,18.69,0,0,1,21.34,1.27C30.83.65,39,5,41.79,11.87a16,16,0,0,1,.4,10c9.3,0,14.8,3.2,17.45,5.14,12.93,9.46,16.53,32.05,6.74,55.14l-22.57.43-1.48,0c.17-3.74,1.51-4.93,2.21-5.36,1-.63,2-.44,4.63-.41A58.38,58.38,0,0,0,55,76.62a14.2,14.2,0,0,1-8-2.91c-5.49-4.34-7.18-13.23-3.89-22.08-1,.63-9.86,6.47-9.65,14.84,0,1.59.14,5.48,3.08,7.79a8.12,8.12,0,0,0,4.79,1.62,7.92,7.92,0,0,1-7.55,6c-4-.07-6.18-3.57-6.32-3.81a17.94,17.94,0,0,1-.73-12.17,16.61,16.61,0,0,1,2.71-5.19A93.91,93.91,0,0,0,39,48.65c3.62-5.42,3.83-7,3.25-7.9-1.28-2-6.59-.81-8.7-.35-3.27.71-4.33,1.6-6.55,2.3a19.44,19.44,0,0,1-13.53-1C7.15,38.61,3.6,29.87,4.72,20.2Z"/><path class="cls-2" d="M6.09,19.5a14,14,0,0,1,3.73-8.84,13.31,13.31,0,0,1,4.71-3.17A9.45,9.45,0,0,1,22,8.38a9.28,9.28,0,0,1,4.3,8.28c-.07,3.05-.95,4.58-2,5.35s-1.81.41-2.54,1.28c-1,1.19-.25,2.65-.54,5.7a16,16,0,0,1-.65,3.25c-.29.72-2.05,4.91-6.33,6.32C9.61,40.08,4,37.79,1,32.71A9.67,9.67,0,0,1,6.09,19.5Z"/><ellipse class="cls-1" cx="14.08" cy="16.66" rx="2.23" ry="3.89"/><path class="cls-1" d="M.57,30.21a9.13,9.13,0,0,0,4.79-.89,9.1,9.1,0,0,0,3.57-3.17"/><path class="cls-2" d="M42.71,14.26c0,4.45-3.61,9.14-6.74,8.8s-5.18-5.63-4.87-9.73c.24-3.15,2-7.55,4.87-7.88C39.11,5.09,42.71,9.8,42.71,14.26Z"/><path class="cls-1" d="M70.45,69.54c1.19-1.37,2.46-1.75,3.79-2.5A15,15,0,0,0,80,60.88Q79.91,38,79.81,15.06a15.46,15.46,0,0,0-5.35-8.65,14.9,14.9,0,0,0-5.33-2.65,10.1,10.1,0,0,0-6.74,1.46,10.7,10.7,0,0,0-4.54,8.19,8.73,8.73,0,0,0,6.49,8,5.23,5.23,0,0,0,4.54-.82,5,5,0,0,0,1.79-3.16,4.8,4.8,0,0,0-.87-1.87,5.18,5.18,0,0,0-3.43-1.86,2.44,2.44,0,0,1-.62-2.14,2.41,2.41,0,0,1,2.81-1.53,8.3,8.3,0,0,1,4.81,3.7,7.6,7.6,0,0,1,.95,2.89,6.79,6.79,0,0,1-.21,2.72,8.29,8.29,0,0,1-4.36,4.77,10.29,10.29,0,0,1-3.35,1.08,13.82,13.82,0,0,1-7.85-1.62,13.15,13.15,0,0,1-3.67-3,15.61,15.61,0,0,1-1.63-7.14,15.1,15.1,0,0,1,1.33-6A13.37,13.37,0,0,1,55.42,6a9.87,9.87,0,0,1,1.35-1.76c.46-.47,1.95-1.92,5.79-3.08A26.1,26.1,0,0,1,70.26,0a16.57,16.57,0,0,1,8.36,4.19A16.8,16.8,0,0,1,83.7,14.85l0,46.59a19.27,19.27,0,0,1-7.54,10,18.56,18.56,0,0,1-7.63,2.87A8.49,8.49,0,0,1,70.45,69.54Z"/></g></g></svg>