<svg xmlns="http://www.w3.org/2000/svg" xmlns:xlink="http://www.w3.org/1999/xlink" viewBox="0 0 437.2 314.8"><defs><style>.cls-1,.cls-81,.cls-85{fill:none;}.cls-2,.cls-82,.cls-84{fill:#23272a;}.cls-2,.cls-4,.cls-84,.cls-85{stroke:#222221;}.cls-2,.cls-4,.cls-81,.cls-84,.cls-85{stroke-miterlimit:10;}.cls-3{isolation:isolate;}.cls-4{fill:#394044;}.cls-105,.cls-106,.cls-107,.cls-108,.cls-109,.cls-5,.cls-6,.cls-71,.cls-77,.cls-78,.cls-84,.cls-86,.cls-87,.cls-88,.cls-89,.cls-90,.cls-91,.cls-92,.cls-94,.cls-98{mix-blend-mode:overlay;}.cls-5{fill:url(#linear-gradient);}.cls-6{opacity:0.25;}.cls-7{fill:#fff;}.cls-8{clip-path:url(#clip-path);}.cls-9{fill:url(#linear-gradient-2);}.cls-10{clip-path:url(#clip-path-2);}.cls-11{fill:url(#linear-gradient-3);}.cls-12{fill:url(#linear-gradient-4);}.cls-13{fill:url(#linear-gradient-5);}.cls-14{fill:url(#linear-gradient-6);}.cls-15{fill:url(#linear-gradient-7);}.cls-16{fill:url(#linear-gradient-8);}.cls-17{fill:url(#linear-gradient-9);}.cls-18{fill:url(#linear-gradient-10);}.cls-19{fill:url(#linear-gradient-11);}.cls-20{fill:url(#linear-gradient-12);}.cls-21{fill:url(#linear-gradient-13);}.cls-22{fill:url(#linear-gradient-14);}.cls-23{fill:url(#linear-gradient-15);}.cls-24{fill:url(#linear-gradient-16);}.cls-25{fill:url(#linear-gradient-17);}.cls-26{fill:url(#linear-gradient-18);}.cls-27{fill:url(#linear-gradient-19);}.cls-28{fill:url(#linear-gradient-20);}.cls-29{fill:url(#linear-gradient-21);}.cls-30{fill:url(#linear-gradient-22);}.cls-31{fill:url(#linear-gradient-23);}.cls-32{fill:url(#linear-gradient-24);}.cls-33{fill:url(#linear-gradient-25);}.cls-34{fill:url(#linear-gradient-26);}.cls-35{fill:url(#linear-gradient-27);}.cls-36{fill:url(#linear-gradient-28);}.cls-37{fill:url(#linear-gradient-29);}.cls-38{fill:url(#linear-gradient-30);}.cls-39{fill:url(#linear-gradient-31);}.cls-40{fill:url(#linear-gradient-32);}.cls-41{fill:url(#linear-gradient-33);}.cls-42{fill:url(#linear-gradient-34);}.cls-43{fill:url(#linear-gradient-35);}.cls-44{fill:url(#linear-gradient-36);}.cls-45{fill:url(#linear-gradient-37);}.cls-46{fill:url(#linear-gradient-38);}.cls-47{fill:url(#linear-gradient-39);}.cls-48{fill:url(#linear-gradient-40);}.cls-49{fill:url(#linear-gradient-41);}.cls-50{fill:url(#linear-gradient-42);}.cls-51{fill:url(#linear-gradient-43);}.cls-52{fill:url(#linear-gradient-44);}.cls-53{fill:url(#linear-gradient-45);}.cls-54{fill:url(#linear-gradient-46);}.cls-55{fill:url(#linear-gradient-47);}.cls-56{fill:url(#linear-gradient-48);}.cls-57{fill:url(#linear-gradient-49);}.cls-58{fill:url(#linear-gradient-50);}.cls-59{fill:url(#linear-gradient-51);}.cls-60{fill:url(#linear-gradient-52);}.cls-61{fill:url(#linear-gradient-53);}.cls-62{fill:url(#linear-gradient-54);}.cls-63{fill:url(#linear-gradient-55);}.cls-64{fill:url(#linear-gradient-56);}.cls-65{fill:url(#linear-gradient-57);}.cls-66{fill:url(#linear-gradient-58);}.cls-67{fill:url(#linear-gradient-59);}.cls-68{fill:url(#linear-gradient-60);}.cls-69{fill:url(#linear-gradient-61);}.cls-70{fill:url(#linear-gradient-62);}.cls-105,.cls-106,.cls-107,.cls-108,.cls-109,.cls-71,.cls-77,.cls-78,.cls-86,.cls-87,.cls-88,.cls-90,.cls-91,.cls-92{opacity:0.45;}.cls-71{fill:url(#linear-gradient-63);}.cls-72{fill:url(#linear-gradient-64);}.cls-73{fill:#0c0c0c;}.cls-74{fill:url(#linear-gradient-65);}.cls-75{fill:url(#linear-gradient-66);}.cls-76{fill:url(#linear-gradient-67);}.cls-77{fill:url(#linear-gradient-68);}.cls-78{fill:url(#linear-gradient-69);}.cls-79{fill:url(#linear-gradient-70);}.cls-80{fill:url(#linear-gradient-71);}.cls-81{stroke:#f98267;stroke-width:0.57px;}.cls-83{clip-path:url(#clip-path-3);}.cls-84,.cls-98{opacity:0.33;}.cls-86{fill:url(#linear-gradient-72);}.cls-87{fill:url(#linear-gradient-73);}.cls-88{fill:url(#linear-gradient-74);}.cls-89,.cls-94{opacity:0.92;}.cls-89{fill:url(#linear-gradient-75);}.cls-90{fill:url(#linear-gradient-76);}.cls-91{fill:url(#linear-gradient-77);}.cls-92{fill:url(#linear-gradient-78);}.cls-93{fill:url(#linear-gradient-79);}.cls-94{fill:url(#linear-gradient-80);}.cls-95{clip-path:url(#clip-path-4);}.cls-96{fill:#ce4d34;}.cls-97{clip-path:url(#clip-path-5);}.cls-99{fill:url(#linear-gradient-81);}.cls-100{fill:url(#linear-gradient-82);}.cls-101{fill:url(#linear-gradient-83);}.cls-102{fill:url(#linear-gradient-84);}.cls-103{fill:url(#linear-gradient-85);}.cls-104{clip-path:url(#clip-path-6);}.cls-105{fill:url(#linear-gradient-86);}.cls-106{fill:url(#linear-gradient-87);}.cls-107{fill:url(#linear-gradient-88);}.cls-108{fill:url(#linear-gradient-89);}.cls-109{fill:url(#linear-gradient-90);}</style><linearGradient id="linear-gradient" x1="156.53" y1="-979.27" x2="276.15" y2="544.16" gradientUnits="userSpaceOnUse"><stop offset="0" stop-color="#fff"/><stop offset="1" stop-color="#fff" stop-opacity="0"/></linearGradient><clipPath id="clip-path" transform="translate(-12.56)"><path class="cls-1" d="M358.28,186.55c-3.67,9.93-2.12,41.42-.27,65.89-1.34.32-2.76.68-4.25,1.06-8,2.05-18.13,5-31.67,9.77a399.62,399.62,0,0,0-41.67,17.15c-2-28.52-6.28-64.23-11.21-69.79C258.13,198.13,243.3,168,231.6,148.2s-29.88-34.14-26.36-54.08,29.9-3.52,51.35,1.17c13.52,3,16.85,12.91,17,18.84,5-6.57,21-16.93,39.78-11.95,23.71,6.31-19.61-40.89-20.9-64.94s29.44-10.55,52.13,7S346,68.9,362.39,94.71,367.08,162.73,358.28,186.55Z"/></clipPath><linearGradient id="linear-gradient-2" x1="238.85" y1="97.85" x2="251.64" y2="134.28" gradientUnits="userSpaceOnUse"><stop offset="0" stop-color="#ffe0c2"/><stop offset="1" stop-color="#f98267"/></linearGradient><clipPath id="clip-path-2" transform="translate(-12.56)"><path class="cls-1" d="M335.43,277.2c-8.58,3.13-18.69,4.9-27.82,2.85,1-25.38-4.37-69.22-5.36-83.11-.6-8.42,0-14.11.83-17.73a16.53,16.53,0,0,1,1.86-5.28c.52-.16,1.06-.33,1.6-.53a78.39,78.39,0,0,0,15.37-7.35,14.67,14.67,0,0,1,1.76,2.36c2,3.14,5,9.57,5.73,20.2C330.39,203.29,337.2,254.25,335.43,277.2Z"/></clipPath><linearGradient id="linear-gradient-3" x1="315.47" y1="192.94" x2="314.72" y2="190.66" gradientUnits="userSpaceOnUse"><stop offset="0" stop-color="#2a1944"/><stop offset="1"/></linearGradient><linearGradient id="linear-gradient-4" x1="310.32" y1="192.94" x2="309.57" y2="190.66" xlink:href="#linear-gradient-3"/><linearGradient id="linear-gradient-5" x1="317.73" y1="192.94" x2="316.97" y2="190.66" xlink:href="#linear-gradient-3"/><linearGradient id="linear-gradient-6" x1="325.13" y1="192.94" x2="324.38" y2="190.66" xlink:href="#linear-gradient-3"/><linearGradient id="linear-gradient-7" x1="332.54" y1="192.94" x2="331.79" y2="190.66" xlink:href="#linear-gradient-3"/><linearGradient id="linear-gradient-8" x1="315.47" y1="199.12" x2="314.72" y2="196.83" xlink:href="#linear-gradient-3"/><linearGradient id="linear-gradient-9" x1="310.32" y1="199.12" x2="309.57" y2="196.83" xlink:href="#linear-gradient-3"/><linearGradient id="linear-gradient-10" x1="317.73" y1="199.12" x2="316.97" y2="196.83" xlink:href="#linear-gradient-3"/><linearGradient id="linear-gradient-11" x1="325.13" y1="199.12" x2="324.38" y2="196.83" xlink:href="#linear-gradient-3"/><linearGradient id="linear-gradient-12" x1="332.54" y1="199.12" x2="331.79" y2="196.83" xlink:href="#linear-gradient-3"/><linearGradient id="linear-gradient-13" x1="315.47" y1="205.29" x2="314.72" y2="203" xlink:href="#linear-gradient-3"/><linearGradient id="linear-gradient-14" x1="310.32" y1="205.29" x2="309.57" y2="203" xlink:href="#linear-gradient-3"/><linearGradient id="linear-gradient-15" x1="317.73" y1="205.29" x2="316.97" y2="203" xlink:href="#linear-gradient-3"/><linearGradient id="linear-gradient-16" x1="325.13" y1="205.29" x2="324.38" y2="203" xlink:href="#linear-gradient-3"/><linearGradient id="linear-gradient-17" x1="332.54" y1="205.29" x2="331.79" y2="203" xlink:href="#linear-gradient-3"/><linearGradient id="linear-gradient-18" x1="315.47" y1="211.46" x2="314.72" y2="209.17" xlink:href="#linear-gradient-3"/><linearGradient id="linear-gradient-19" x1="310.32" y1="211.46" x2="309.57" y2="209.17" xlink:href="#linear-gradient-3"/><linearGradient id="linear-gradient-20" x1="317.73" y1="211.46" x2="316.97" y2="209.17" xlink:href="#linear-gradient-3"/><linearGradient id="linear-gradient-21" x1="325.13" y1="211.46" x2="324.38" y2="209.17" xlink:href="#linear-gradient-3"/><linearGradient id="linear-gradient-22" x1="332.54" y1="211.46" x2="331.79" y2="209.17" xlink:href="#linear-gradient-3"/><linearGradient id="linear-gradient-23" x1="315.47" y1="217.63" x2="314.72" y2="215.35" xlink:href="#linear-gradient-3"/><linearGradient id="linear-gradient-24" x1="310.32" y1="217.63" x2="309.57" y2="215.35" xlink:href="#linear-gradient-3"/><linearGradient id="linear-gradient-25" x1="317.73" y1="217.63" x2="316.97" y2="215.35" xlink:href="#linear-gradient-3"/><linearGradient id="linear-gradient-26" x1="325.13" y1="217.63" x2="324.38" y2="215.35" xlink:href="#linear-gradient-3"/><linearGradient id="linear-gradient-27" x1="332.54" y1="217.63" x2="331.79" y2="215.35" xlink:href="#linear-gradient-3"/><linearGradient id="linear-gradient-28" x1="315.47" y1="223.8" x2="314.72" y2="221.52" xlink:href="#linear-gradient-3"/><linearGradient id="linear-gradient-29" x1="322.88" y1="223.8" x2="322.13" y2="221.52" xlink:href="#linear-gradient-3"/><linearGradient id="linear-gradient-30" x1="330.28" y1="223.8" x2="329.53" y2="221.52" xlink:href="#linear-gradient-3"/><linearGradient id="linear-gradient-31" x1="337.69" y1="223.8" x2="336.94" y2="221.52" xlink:href="#linear-gradient-3"/><linearGradient id="linear-gradient-32" x1="345.09" y1="223.8" x2="344.34" y2="221.52" xlink:href="#linear-gradient-3"/><linearGradient id="linear-gradient-33" x1="280.4" y1="237.25" x2="279.65" y2="234.97" xlink:href="#linear-gradient-3"/><linearGradient id="linear-gradient-34" x1="287.81" y1="237.25" x2="287.06" y2="234.97" xlink:href="#linear-gradient-3"/><linearGradient id="linear-gradient-35" x1="295.22" y1="237.25" x2="294.46" y2="234.97" xlink:href="#linear-gradient-3"/><linearGradient id="linear-gradient-36" x1="302.62" y1="237.25" x2="301.87" y2="234.97" xlink:href="#linear-gradient-3"/><linearGradient id="linear-gradient-37" x1="310.03" y1="237.25" x2="309.28" y2="234.97" xlink:href="#linear-gradient-3"/><linearGradient id="linear-gradient-38" x1="280.4" y1="243.43" x2="279.65" y2="241.14" xlink:href="#linear-gradient-3"/><linearGradient id="linear-gradient-39" x1="287.81" y1="243.43" x2="287.06" y2="241.14" xlink:href="#linear-gradient-3"/><linearGradient id="linear-gradient-40" x1="295.22" y1="243.43" x2="294.46" y2="241.14" xlink:href="#linear-gradient-3"/><linearGradient id="linear-gradient-41" x1="302.62" y1="243.43" x2="301.87" y2="241.14" xlink:href="#linear-gradient-3"/><linearGradient id="linear-gradient-42" x1="310.03" y1="243.43" x2="309.28" y2="241.14" xlink:href="#linear-gradient-3"/><linearGradient id="linear-gradient-43" x1="280.4" y1="249.6" x2="279.65" y2="247.31" xlink:href="#linear-gradient-3"/><linearGradient id="linear-gradient-44" x1="287.81" y1="249.6" x2="287.06" y2="247.31" xlink:href="#linear-gradient-3"/><linearGradient id="linear-gradient-45" x1="295.22" y1="249.6" x2="294.46" y2="247.31" xlink:href="#linear-gradient-3"/><linearGradient id="linear-gradient-46" x1="302.62" y1="249.6" x2="301.87" y2="247.31" xlink:href="#linear-gradient-3"/><linearGradient id="linear-gradient-47" x1="310.03" y1="249.6" x2="309.28" y2="247.31" xlink:href="#linear-gradient-3"/><linearGradient id="linear-gradient-48" x1="280.4" y1="255.77" x2="279.65" y2="253.48" xlink:href="#linear-gradient-3"/><linearGradient id="linear-gradient-49" x1="287.81" y1="255.77" x2="287.06" y2="253.48" xlink:href="#linear-gradient-3"/><linearGradient id="linear-gradient-50" x1="295.22" y1="255.77" x2="294.46" y2="253.48" xlink:href="#linear-gradient-3"/><linearGradient id="linear-gradient-51" x1="302.62" y1="255.77" x2="301.87" y2="253.48" xlink:href="#linear-gradient-3"/><linearGradient id="linear-gradient-52" x1="310.03" y1="255.77" x2="309.28" y2="253.48" xlink:href="#linear-gradient-3"/><linearGradient id="linear-gradient-53" x1="280.4" y1="261.94" x2="279.65" y2="259.66" xlink:href="#linear-gradient-3"/><linearGradient id="linear-gradient-54" x1="287.81" y1="261.94" x2="287.06" y2="259.66" xlink:href="#linear-gradient-3"/><linearGradient id="linear-gradient-55" x1="295.22" y1="261.94" x2="294.46" y2="259.66" xlink:href="#linear-gradient-3"/><linearGradient id="linear-gradient-56" x1="302.62" y1="261.94" x2="301.87" y2="259.66" xlink:href="#linear-gradient-3"/><linearGradient id="linear-gradient-57" x1="310.03" y1="261.94" x2="309.28" y2="259.66" xlink:href="#linear-gradient-3"/><linearGradient id="linear-gradient-58" x1="280.4" y1="268.11" x2="279.65" y2="265.83" xlink:href="#linear-gradient-3"/><linearGradient id="linear-gradient-59" x1="287.81" y1="268.11" x2="287.06" y2="265.83" xlink:href="#linear-gradient-3"/><linearGradient id="linear-gradient-60" x1="295.22" y1="268.11" x2="294.46" y2="265.83" xlink:href="#linear-gradient-3"/><linearGradient id="linear-gradient-61" x1="302.62" y1="268.11" x2="301.87" y2="265.83" xlink:href="#linear-gradient-3"/><linearGradient id="linear-gradient-62" x1="310.03" y1="268.11" x2="309.28" y2="265.83" xlink:href="#linear-gradient-3"/><linearGradient id="linear-gradient-63" x1="300.64" y1="133.38" x2="333.39" y2="237.35" gradientUnits="userSpaceOnUse"><stop offset="0"/><stop offset="1" stop-opacity="0"/></linearGradient><linearGradient id="linear-gradient-64" x1="292.73" y1="162.16" x2="330.8" y2="138.21" xlink:href="#linear-gradient-2"/><linearGradient id="linear-gradient-65" x1="307.49" y1="194.53" x2="316.91" y2="150.73" xlink:href="#linear-gradient-2"/><linearGradient id="linear-gradient-66" x1="400.41" y1="395.22" x2="252.64" y2="145.42" gradientUnits="userSpaceOnUse"><stop offset="0" stop-color="#7fb3ff"/><stop offset="1" stop-color="#fff"/></linearGradient><linearGradient id="linear-gradient-67" x1="451.73" y1="364.86" x2="303.96" y2="115.06" xlink:href="#linear-gradient-66"/><linearGradient id="linear-gradient-68" x1="295.69" y1="157.85" x2="312.2" y2="230.85" xlink:href="#linear-gradient-63"/><linearGradient id="linear-gradient-69" x1="323.56" y1="151.55" x2="340.07" y2="224.54" xlink:href="#linear-gradient-63"/><linearGradient id="linear-gradient-70" x1="253.58" y1="100.95" x2="253.58" y2="119.68" xlink:href="#linear-gradient-2"/><linearGradient id="linear-gradient-71" x1="322.72" y1="49.93" x2="336.84" y2="83.5" xlink:href="#linear-gradient-2"/><clipPath id="clip-path-3" transform="translate(-12.56)"><path class="cls-2" d="M322.63,152.52a4.63,4.63,0,0,0-2.64.23s-2.15-9.11-2.66-9.41-14,2.86-21.39-1.13c-9-3.17-13.3-15.45-6-24.05s18.72,7.88,25.68,10,14.22-.72,16.38,9C333.59,144.54,326.68,148.15,322.63,152.52Z"/></clipPath><linearGradient id="linear-gradient-72" x1="252.71" y1="89.95" x2="252.58" y2="150.8" xlink:href="#linear-gradient-63"/><linearGradient id="linear-gradient-73" x1="311.86" y1="51.18" x2="351.29" y2="102.35" xlink:href="#linear-gradient-63"/><linearGradient id="linear-gradient-74" x1="451.9" y1="234.9" x2="259.12" y2="229.99" xlink:href="#linear-gradient-63"/><linearGradient id="linear-gradient-75" x1="442.74" y1="193.47" x2="309.04" y2="206.85" xlink:href="#linear-gradient-63"/><linearGradient id="linear-gradient-76" x1="317.25" y1="143.49" x2="309.47" y2="189.33" xlink:href="#linear-gradient-63"/><linearGradient id="linear-gradient-77" x1="328.38" y1="147.48" x2="310.06" y2="172.96" xlink:href="#linear-gradient-63"/><linearGradient id="linear-gradient-78" x1="313.3" y1="115.58" x2="302.86" y2="174.72" xlink:href="#linear-gradient-63"/><linearGradient id="linear-gradient-79" x1="252.51" y1="163.25" x2="251.39" y2="169.6" xlink:href="#linear-gradient-63"/><linearGradient id="linear-gradient-80" x1="297.53" y1="162.98" x2="268.51" y2="298.44" xlink:href="#linear-gradient-63"/><clipPath id="clip-path-4" transform="translate(-12.56)"><path class="cls-1" d="M265.78,176.07,264,227.79l-70.94,50.13c-1.69.89-4.59,21.35-13.92,35.66a163.81,163.81,0,0,1-45.8-11.74A165,165,0,0,1,81,267.57L61,283.33,29.32,299.9,0,276.15S44.42,244.3,51.46,221c6.94-23,24.09-31.12,25.75-32.41,0,0,22.48-40.26,22.48-40.26l32.64-18.38,68.8,35.12Z"/></clipPath><clipPath id="clip-path-5" transform="translate(-12.56)"><path class="cls-1" d="M149.57,142.79c-9.27-4.5-21.14-.95-25.37,4.23s-4,18-8.33,25.65S96.09,191.5,102,202s56.48,10,59.89-.95-3-15-2.32-24.83,3.69-19.92-1.22-27.83S149.57,142.79,149.57,142.79Z"/></clipPath><linearGradient id="linear-gradient-81" x1="163.8" y1="191.33" x2="116.12" y2="149.38" xlink:href="#linear-gradient-2"/><linearGradient id="linear-gradient-82" x1="135.23" y1="337.58" x2="129.96" y2="197.14" xlink:href="#linear-gradient-66"/><linearGradient id="linear-gradient-83" x1="240.65" y1="183.52" x2="210.09" y2="212.17" xlink:href="#linear-gradient-2"/><linearGradient id="linear-gradient-84" x1="14.13" y1="278.84" x2="59.7" y2="259.47" xlink:href="#linear-gradient-2"/><linearGradient id="linear-gradient-85" x1="148" y1="204.46" x2="123.58" y2="174.85" xlink:href="#linear-gradient-2"/><clipPath id="clip-path-6" transform="translate(-12.56)"><path class="cls-1" d="M125.84,190.54l0,0a94.4,94.4,0,0,0-7.49,27.11c-1.77,15.23-6.65,68.81-2,87.4a1.17,1.17,0,0,0,0,.2c-.27,3.13-25.79-7.23-26.6-15.83s7-27.28,7.77-34a126.75,126.75,0,0,0,.69-14.74s-22,26-52.47,33.56a16.62,16.62,0,0,0-1-2.76c-2.29-4.84-6.28-7.29-7.89-9.18a2.48,2.48,0,0,1-.7-1.35c-.21-2.46,25.37-12.49,37.65-26S87.57,198.87,125.84,190.54Zm101,15.37a15.56,15.56,0,0,0-7.09-7.39,5.09,5.09,0,0,0-2.23-.69c-2.05.15-13.1,17.55-31.52,16.12S167,197.66,147.94,193.17l.09.24a22.93,22.93,0,0,1,.26,5.7c-.65,21.58-10.36,92.5-5.83,107.93a9.86,9.86,0,0,0,.36,1c2.46,3.27,13.41-8.19,14-14.74S148.55,259,151,250.92s11.66-10.17,7.57-26.13c16.78,16,51.16,15.27,69-15.08A9.25,9.25,0,0,0,226.84,205.91Z"/></clipPath><linearGradient id="linear-gradient-86" x1="209.79" y1="290.75" x2="188.1" y2="194.57" xlink:href="#linear-gradient-63"/><linearGradient id="linear-gradient-87" x1="23.38" y1="270.55" x2="138.26" y2="264" xlink:href="#linear-gradient-63"/><linearGradient id="linear-gradient-88" x1="121.93" y1="161.53" x2="133.75" y2="198.86" xlink:href="#linear-gradient-63"/><linearGradient id="linear-gradient-89" x1="138.37" y1="153.49" x2="146.57" y2="184.35" xlink:href="#linear-gradient-63"/><linearGradient id="linear-gradient-90" x1="137.24" y1="172.99" x2="135.77" y2="204.07" xlink:href="#linear-gradient-63"/></defs><title>Recurso 1</title><g class="cls-3"><g id="Capa_2" data-name="Capa 2"><g id="OBJECTS"><path class="cls-4" d="M438.68,181.4a150.08,150.08,0,0,1-15.3,29c-8.25,12.11-17.94,22.27-28.3,29.58a50.62,50.62,0,0,1-15,7.63c-5.32,1.66-11.29,2.7-20.28,4.87-1.34.32-2.76.68-4.25,1.06-8,2.05-18.13,5-31.67,9.77a398.7,398.7,0,0,0-41.67,17.15c-2,1-4,2-5.85,2.91-28.12,14.38-38.16,24.89-61.13,29.17a120.84,120.84,0,0,1-34.28,1.08,164,164,0,0,1-45.81-11.74,165.15,165.15,0,0,1-52.34-34.27A138.08,138.08,0,0,1,47.2,210a145.14,145.14,0,0,1-5.8-55.92c.24-2.69.54-5.37.91-8a164.62,164.62,0,0,1,10.77-39.81C67.14,72,91.73,45,118.45,35.88c39-13.26,61.09,19.13,120.06,5.27,45.78-10.76,49.25-34.23,86.2-36.5,40.92-2.52,85.58,23.26,108.19,61.57q1.23,2.09,2.34,4.19a117.39,117.39,0,0,1,12.54,37.74C451.67,133.3,447.63,158.89,438.68,181.4Z" transform="translate(-12.56)"/><path class="cls-5" d="M438.68,181.4a150.08,150.08,0,0,1-15.3,29c-8.25,12.11-17.94,22.27-28.3,29.58a50.62,50.62,0,0,1-15,7.63c-5.32,1.66-11.29,2.7-20.28,4.87-1.34.32-2.76.68-4.25,1.06-8,2.05-18.13,5-31.67,9.77a398.7,398.7,0,0,0-41.67,17.15c-2,1-4,2-5.85,2.91-28.12,14.38-38.16,24.89-61.13,29.17a120.84,120.84,0,0,1-34.28,1.08,164,164,0,0,1-45.81-11.74,165.15,165.15,0,0,1-52.34-34.27A138.08,138.08,0,0,1,47.2,210a145.14,145.14,0,0,1-5.8-55.92c13.66-12.8,41.53-33.2,79.69-32.19,55.41,1.46,73.22,68.9,73.22,68.9s-.91-41.34,41.36-51,57.23,51,57.23,51,8.61-61.57,51.37-73,51.54,68.9,51.54,68.9,4.51-65.71,52-78.57C451.67,133.3,447.63,158.89,438.68,181.4Z" transform="translate(-12.56)"/><g class="cls-6"><circle class="cls-7" cx="101.29" cy="26.31" r="2.05"/><circle class="cls-7" cx="118.47" cy="26.31" r="2.05"/><circle class="cls-7" cx="135.65" cy="26.31" r="2.05"/><circle class="cls-7" cx="152.83" cy="26.31" r="2.05"/><circle class="cls-7" cx="170.02" cy="26.31" r="2.05"/><circle class="cls-7" cx="101.29" cy="37.4" r="2.05"/><circle class="cls-7" cx="118.47" cy="37.4" r="2.05"/><circle class="cls-7" cx="135.65" cy="37.4" r="2.05"/><circle class="cls-7" cx="152.83" cy="37.4" r="2.05"/><circle class="cls-7" cx="170.02" cy="37.4" r="2.05"/><circle class="cls-7" cx="101.29" cy="48.5" r="2.05"/><circle class="cls-7" cx="118.47" cy="48.5" r="2.05"/><circle class="cls-7" cx="135.65" cy="48.5" r="2.05"/><circle class="cls-7" cx="152.83" cy="48.5" r="2.05"/><circle class="cls-7" cx="170.02" cy="48.5" r="2.05"/><circle class="cls-7" cx="101.29" cy="59.6" r="2.05"/><circle class="cls-7" cx="118.47" cy="59.6" r="2.05"/><circle class="cls-7" cx="135.65" cy="59.6" r="2.05"/><circle class="cls-7" cx="152.83" cy="59.6" r="2.05"/><circle class="cls-7" cx="170.02" cy="59.6" r="2.05"/><circle class="cls-7" cx="101.29" cy="70.7" r="2.05"/><circle class="cls-7" cx="118.47" cy="70.7" r="2.05"/><circle class="cls-7" cx="135.65" cy="70.7" r="2.05"/><circle class="cls-7" cx="152.83" cy="70.7" r="2.05"/><circle class="cls-7" cx="170.02" cy="70.7" r="2.05"/><circle class="cls-7" cx="101.29" cy="81.8" r="2.05"/><circle class="cls-7" cx="118.47" cy="81.8" r="2.05"/><circle class="cls-7" cx="135.65" cy="81.8" r="2.05"/><circle class="cls-7" cx="152.83" cy="81.8" r="2.05"/><circle class="cls-7" cx="170.02" cy="81.8" r="2.05"/><circle class="cls-7" cx="101.29" cy="92.9" r="2.05"/><circle class="cls-7" cx="118.47" cy="92.9" r="2.05"/><circle class="cls-7" cx="135.65" cy="92.9" r="2.05"/><circle class="cls-7" cx="152.83" cy="92.9" r="2.05"/><circle class="cls-7" cx="170.02" cy="92.9" r="2.05"/></g><g class="cls-6"><circle class="cls-7" cx="329.65" cy="2.05" r="2.05"/><circle class="cls-7" cx="346.84" cy="2.05" r="2.05"/><circle class="cls-7" cx="364.02" cy="2.05" r="2.05"/><circle class="cls-7" cx="381.2" cy="2.05" r="2.05"/><circle class="cls-7" cx="398.38" cy="2.05" r="2.05"/><circle class="cls-7" cx="329.65" cy="13.15" r="2.05"/><circle class="cls-7" cx="346.84" cy="13.15" r="2.05"/><circle class="cls-7" cx="364.02" cy="13.15" r="2.05"/><circle class="cls-7" cx="381.2" cy="13.15" r="2.05"/><circle class="cls-7" cx="398.38" cy="13.15" r="2.05"/><circle class="cls-7" cx="329.65" cy="24.25" r="2.05"/><circle class="cls-7" cx="346.84" cy="24.25" r="2.05"/><circle class="cls-7" cx="364.02" cy="24.25" r="2.05"/><circle class="cls-7" cx="381.2" cy="24.25" r="2.05"/><circle class="cls-7" cx="398.38" cy="24.25" r="2.05"/><path class="cls-7" d="M344.26,35.35a2,2,0,1,1-2.05-2.05A2,2,0,0,1,344.26,35.35Z" transform="translate(-12.56)"/><path class="cls-7" d="M361.45,35.35a2.06,2.06,0,1,1-2.06-2.05A2,2,0,0,1,361.45,35.35Z" transform="translate(-12.56)"/><path class="cls-7" d="M378.63,35.35a2.06,2.06,0,1,1-2.05-2.05A2,2,0,0,1,378.63,35.35Z" transform="translate(-12.56)"/><path class="cls-7" d="M395.81,35.35a2.06,2.06,0,1,1-2.05-2.05A2,2,0,0,1,395.81,35.35Z" transform="translate(-12.56)"/><path class="cls-7" d="M413,35.35a2.05,2.05,0,1,1-2.05-2.05A2,2,0,0,1,413,35.35Z" transform="translate(-12.56)"/><circle class="cls-7" cx="329.65" cy="46.45" r="2.05"/><circle class="cls-7" cx="346.84" cy="46.45" r="2.05"/><circle class="cls-7" cx="364.02" cy="46.45" r="2.05"/><circle class="cls-7" cx="381.2" cy="46.45" r="2.05"/><circle class="cls-7" cx="398.38" cy="46.45" r="2.05"/><circle class="cls-7" cx="329.65" cy="57.55" r="2.05"/><circle class="cls-7" cx="346.84" cy="57.55" r="2.05"/><circle class="cls-7" cx="364.02" cy="57.55" r="2.05"/><circle class="cls-7" cx="381.2" cy="57.55" r="2.05"/><circle class="cls-7" cx="398.38" cy="57.55" r="2.05"/><circle class="cls-7" cx="329.65" cy="68.65" r="2.05"/><circle class="cls-7" cx="346.84" cy="68.65" r="2.05"/><circle class="cls-7" cx="364.02" cy="68.65" r="2.05"/><circle class="cls-7" cx="381.2" cy="68.65" r="2.05"/><circle class="cls-7" cx="398.38" cy="68.65" r="2.05"/></g><g class="cls-6"><circle class="cls-7" cx="242.78" cy="244.62" r="2.05"/><circle class="cls-7" cx="259.96" cy="244.62" r="2.05"/><circle class="cls-7" cx="277.14" cy="244.62" r="2.05"/><path class="cls-7" d="M308.94,244.62a2.06,2.06,0,1,1-2.06-2.06A2.05,2.05,0,0,1,308.94,244.62Z" transform="translate(-12.56)"/><circle class="cls-7" cx="311.51" cy="244.62" r="2.05"/><circle class="cls-7" cx="242.78" cy="255.72" r="2.05"/><circle class="cls-7" cx="259.96" cy="255.72" r="2.05"/><circle class="cls-7" cx="277.14" cy="255.72" r="2.05"/><path class="cls-7" d="M308.94,255.72a2.06,2.06,0,1,1-2.06-2.06A2.05,2.05,0,0,1,308.94,255.72Z" transform="translate(-12.56)"/><circle class="cls-7" cx="311.51" cy="255.72" r="2.05"/><circle class="cls-7" cx="242.78" cy="266.82" r="2.05"/><circle class="cls-7" cx="259.96" cy="266.82" r="2.05"/><circle class="cls-7" cx="277.14" cy="266.82" r="2.05"/><path class="cls-7" d="M308.94,266.82a2.06,2.06,0,1,1-2.06-2.06A2.05,2.05,0,0,1,308.94,266.82Z" transform="translate(-12.56)"/><circle class="cls-7" cx="311.51" cy="266.82" r="2.05"/><circle class="cls-7" cx="242.78" cy="277.92" r="2.05"/><circle class="cls-7" cx="259.96" cy="277.92" r="2.05"/><circle class="cls-7" cx="277.14" cy="277.92" r="2.05"/><path class="cls-7" d="M308.94,277.92a2.06,2.06,0,1,1-2.06-2.06A2.05,2.05,0,0,1,308.94,277.92Z" transform="translate(-12.56)"/><circle class="cls-7" cx="311.51" cy="277.92" r="2.05"/><circle class="cls-7" cx="242.78" cy="289.02" r="2.05"/><circle class="cls-7" cx="259.96" cy="289.02" r="2.05"/><circle class="cls-7" cx="277.14" cy="289.02" r="2.05"/><path class="cls-7" d="M308.94,289a2.06,2.06,0,1,1-2.06-2.06A2.05,2.05,0,0,1,308.94,289Z" transform="translate(-12.56)"/><circle class="cls-7" cx="311.51" cy="289.02" r="2.05"/><circle class="cls-7" cx="242.78" cy="300.12" r="2.05"/><circle class="cls-7" cx="259.96" cy="300.12" r="2.05"/><circle class="cls-7" cx="277.14" cy="300.12" r="2.05"/><path class="cls-7" d="M308.94,300.12a2.06,2.06,0,1,1-2.06-2.06A2.05,2.05,0,0,1,308.94,300.12Z" transform="translate(-12.56)"/><circle class="cls-7" cx="311.51" cy="300.12" r="2.05"/><circle class="cls-7" cx="242.78" cy="311.22" r="2.05"/><circle class="cls-7" cx="259.96" cy="311.22" r="2.05"/><circle class="cls-7" cx="277.14" cy="311.22" r="2.05"/><path class="cls-7" d="M308.94,311.22a2.06,2.06,0,1,1-2.06-2.06A2.05,2.05,0,0,1,308.94,311.22Z" transform="translate(-12.56)"/><circle class="cls-7" cx="311.51" cy="311.22" r="2.05"/></g><g class="cls-8"><path class="cls-9" d="M258.91,120.66c-4.31-1.64-9.81-.68-12.61.44-1.9-4.19-6.39-6.74-10.29-8-4.17-1.36-5.87-3.34-5.87-5.93s7.1,1.63,11.67,2.46c2.11.37,5.55,0,8.83.9a10,10,0,0,1,5.94,4.14h0A15.89,15.89,0,0,1,258.91,120.66Z" transform="translate(-12.56)"/><path class="cls-2" d="M335.43,277.2c-8.58,3.13-18.69,4.9-27.82,2.85.21-5.12.16-11-.07-17.22-.89-24.63-4.5-54.8-5.29-65.89-.6-8.42,0-14.11.83-17.73a16.53,16.53,0,0,1,1.86-5.28c.52-.16,1.06-.33,1.6-.53a78.39,78.39,0,0,0,15.37-7.35,14.67,14.67,0,0,1,1.76,2.36,31.54,31.54,0,0,1,2.7,5.52,45.13,45.13,0,0,1,2.26,8.32,60.91,60.91,0,0,1,.77,6.36C330.39,203.29,337.2,254.25,335.43,277.2Z" transform="translate(-12.56)"/><g class="cls-10"><g class="cls-6"><path class="cls-11" d="M316.16,191.44a1.19,1.19,0,1,1-1.18-1.18A1.18,1.18,0,0,1,316.16,191.44Z" transform="translate(-12.56)"/><circle class="cls-12" cx="309.83" cy="191.44" r="1.18"/><circle class="cls-13" cx="317.23" cy="191.44" r="1.18"/><circle class="cls-14" cx="324.64" cy="191.44" r="1.18"/><circle class="cls-15" cx="332.04" cy="191.44" r="1.18"/><path class="cls-16" d="M316.16,197.62a1.19,1.19,0,1,1-1.18-1.19A1.18,1.18,0,0,1,316.16,197.62Z" transform="translate(-12.56)"/><circle class="cls-17" cx="309.83" cy="197.62" r="1.18"/><circle class="cls-18" cx="317.23" cy="197.62" r="1.18"/><circle class="cls-19" cx="324.64" cy="197.62" r="1.18"/><circle class="cls-20" cx="332.04" cy="197.62" r="1.18"/><path class="cls-21" d="M316.16,203.79A1.19,1.19,0,1,1,315,202.6,1.18,1.18,0,0,1,316.16,203.79Z" transform="translate(-12.56)"/><circle class="cls-22" cx="309.83" cy="203.79" r="1.18"/><circle class="cls-23" cx="317.23" cy="203.79" r="1.18"/><circle class="cls-24" cx="324.64" cy="203.79" r="1.18"/><circle class="cls-25" cx="332.04" cy="203.79" r="1.18"/><path class="cls-26" d="M316.16,210a1.19,1.19,0,1,1-1.18-1.19A1.18,1.18,0,0,1,316.16,210Z" transform="translate(-12.56)"/><circle class="cls-27" cx="309.83" cy="209.96" r="1.18"/><circle class="cls-28" cx="317.23" cy="209.96" r="1.18"/><circle class="cls-29" cx="324.64" cy="209.96" r="1.18"/><circle class="cls-30" cx="332.04" cy="209.96" r="1.18"/><path class="cls-31" d="M316.16,216.13a1.19,1.19,0,1,1-1.18-1.19A1.18,1.18,0,0,1,316.16,216.13Z" transform="translate(-12.56)"/><circle class="cls-32" cx="309.83" cy="216.13" r="1.18"/><circle class="cls-33" cx="317.23" cy="216.13" r="1.18"/><circle class="cls-34" cx="324.64" cy="216.13" r="1.18"/><circle class="cls-35" cx="332.04" cy="216.13" r="1.18"/><path class="cls-36" d="M316.16,222.3a1.19,1.19,0,1,1-1.18-1.18A1.18,1.18,0,0,1,316.16,222.3Z" transform="translate(-12.56)"/><path class="cls-37" d="M323.57,222.3a1.19,1.19,0,1,1-1.19-1.18A1.19,1.19,0,0,1,323.57,222.3Z" transform="translate(-12.56)"/><path class="cls-38" d="M331,222.3a1.19,1.19,0,1,1-1.18-1.18A1.18,1.18,0,0,1,331,222.3Z" transform="translate(-12.56)"/><path class="cls-39" d="M338.38,222.3a1.19,1.19,0,1,1-1.18-1.18A1.18,1.18,0,0,1,338.38,222.3Z" transform="translate(-12.56)"/><path class="cls-40" d="M345.79,222.3a1.19,1.19,0,1,1-1.19-1.18A1.19,1.19,0,0,1,345.79,222.3Z" transform="translate(-12.56)"/></g><g class="cls-6"><circle class="cls-41" cx="279.91" cy="235.75" r="1.18"/><circle class="cls-42" cx="287.32" cy="235.75" r="1.18"/><circle class="cls-43" cx="294.72" cy="235.75" r="1.18"/><circle class="cls-44" cx="302.13" cy="235.75" r="1.18"/><circle class="cls-45" cx="309.53" cy="235.75" r="1.18"/><circle class="cls-46" cx="279.91" cy="241.93" r="1.18"/><circle class="cls-47" cx="287.32" cy="241.93" r="1.18"/><circle class="cls-48" cx="294.72" cy="241.93" r="1.18"/><circle class="cls-49" cx="302.13" cy="241.93" r="1.18"/><circle class="cls-50" cx="309.53" cy="241.93" r="1.18"/><circle class="cls-51" cx="279.91" cy="248.1" r="1.18"/><circle class="cls-52" cx="287.32" cy="248.1" r="1.18"/><circle class="cls-53" cx="294.72" cy="248.1" r="1.18"/><circle class="cls-54" cx="302.13" cy="248.1" r="1.18"/><circle class="cls-55" cx="309.53" cy="248.1" r="1.18"/><circle class="cls-56" cx="279.91" cy="254.27" r="1.18"/><circle class="cls-57" cx="287.32" cy="254.27" r="1.18"/><circle class="cls-58" cx="294.72" cy="254.27" r="1.18"/><circle class="cls-59" cx="302.13" cy="254.27" r="1.18"/><circle class="cls-60" cx="309.53" cy="254.27" r="1.18"/><circle class="cls-61" cx="279.91" cy="260.44" r="1.18"/><circle class="cls-62" cx="287.32" cy="260.44" r="1.18"/><circle class="cls-63" cx="294.72" cy="260.44" r="1.18"/><circle class="cls-64" cx="302.13" cy="260.44" r="1.18"/><circle class="cls-65" cx="309.53" cy="260.44" r="1.18"/><circle class="cls-66" cx="279.91" cy="266.61" r="1.18"/><circle class="cls-67" cx="287.32" cy="266.61" r="1.18"/><circle class="cls-68" cx="294.72" cy="266.61" r="1.18"/><circle class="cls-69" cx="302.13" cy="266.61" r="1.18"/><circle class="cls-70" cx="309.53" cy="266.61" r="1.18"/></g></g><path class="cls-71" d="M314.83,184.56c-6.48-.1-9.92-2.63-11.75-5.35a16.53,16.53,0,0,1,1.86-5.28c.52-.16,1.06-.33,1.6-.53a78.39,78.39,0,0,0,15.37-7.35,14.67,14.67,0,0,1,1.76,2.36C323.91,176.26,322.41,184.66,314.83,184.56Z" transform="translate(-12.56)"/><path class="cls-72" d="M318.87,160.83c-.27.44-.54.86-.81,1.27-3.67,5.34-8.54,7.56-13.12,7.64a14.66,14.66,0,0,1-5.92-1.13c-9.89-4.12-6.15-18-4.08-23.84.56-1.58,1-2.56,1-2.56,7.37,4,20.88.82,21.39,1.13s2.38,8.22,2.63,9.29l0,.12a4.63,4.63,0,0,1,2.64-.23,3.29,3.29,0,0,1,2.07,1.56C326.34,156.74,324.29,163.7,318.87,160.83Z" transform="translate(-12.56)"/><path class="cls-73" d="M322.63,152.52a4.63,4.63,0,0,0-2.64.23s-2.15-9.11-2.66-9.41-14,2.86-21.39-1.13c-9-3.17-13.3-15.45-6-24.05s18.72,7.88,25.68,10,14.22-.72,16.38,9C333.59,144.54,326.68,148.15,322.63,152.52Z" transform="translate(-12.56)"/><path class="cls-74" d="M319.37,173.79a12.19,12.19,0,0,1-3.51,4.32c-3.38,2.45-10.54.41-10.44-3.38a21.38,21.38,0,0,0-.13-2.59c-.1-.81-.22-1.62-.35-2.4,4.58-.08,9.45-2.3,13.12-7.64.63,3.68,2.3,6.42,2.51,7.31A8.65,8.65,0,0,1,319.37,173.79Z" transform="translate(-12.56)"/><path class="cls-75" d="M307.61,280.05a29,29,0,0,1-11.06-5,30.41,30.41,0,0,1-8.43-9.79c5.53-24.36,16-43.39.21-62.22-6.41-7.64-13-11.81-19.12-16.52-8.94-6.88-16.86-14.92-21.6-36.68-2.69-12.27-3.54-19-3.66-22.71-.11-3.16.3-4.27.58-4.92a3.55,3.55,0,0,1,1.77-1.14c2.8-1.12,8.3-2.08,12.61-.44a10.09,10.09,0,0,1,2.2,1.17,42,42,0,0,0,.22,4.57c1.8,18.82,14.86,53.95,41.29,48.13.77-.17,1.54-.37,2.32-.6,0,0-2.39,3.54-2.85,13.24a82.68,82.68,0,0,0,.16,9.77C303.24,210.83,308.65,254.67,307.61,280.05Z" transform="translate(-12.56)"/><path class="cls-76" d="M355.46,262.43c1.32,2-3.32,6.55-10.84,10.63a68.77,68.77,0,0,1-9.19,4.14c1.77-22.95-5-73.91-6-88.59a55.86,55.86,0,0,0-1.59-10.14c-2.26-8.74-5.9-12.42-5.9-12.42.66-.42,1.32-.85,2-1.29C342,152.49,348,135,344.4,121c-3.46-13.69-14-28.59-18.49-35.58-1.33-2.11-2.11-3.49-2-3.92a13.87,13.87,0,0,1,1.7-3c1.81-2.59,4.91-5.92,8.63-6.88a8.25,8.25,0,0,1,3.18-.18c1.26.18,3,1.41,5.06,3.44,9.44,9.46,24.82,36.28,24.82,56.32,0,24.36-16.37,46.87-17.6,57.1S345.23,245,355.46,262.43Z" transform="translate(-12.56)"/><path class="cls-77" d="M304.94,173.93s-2.39,3.54-2.85,13.24l-5.85-2.1a40.52,40.52,0,0,1,6.37-10.53h0C303.39,174.36,304.16,174.16,304.94,173.93Z" transform="translate(-12.56)"/><path class="cls-78" d="M334,175.72a11.74,11.74,0,0,0-6.16,2.75c-2.26-8.74-5.9-12.42-5.9-12.42.66-.42,1.32-.85,2-1.29A22,22,0,0,1,334,175.72Z" transform="translate(-12.56)"/><path class="cls-79" d="M256.59,114.66h0a10,10,0,0,0-5.94-4.14c-.17-2.53-.08-5.65,1.47-5.61C254.7,105,256.59,114.66,256.59,114.66Z" transform="translate(-12.56)"/><path class="cls-80" d="M334.79,58.08c-.21,4-2,6-1.64,9.93a10.11,10.11,0,0,0,1.12,3.65c-3.72,1-6.82,4.29-8.63,6.88-4.65-3.68-5.61-5.92-6.2-10.23-.61-4.5-1.84-8.49-.61-9.72s3.88,4,5.83,5.32,4.5-4.3,5.32-7.88-1.64-9.62,1.74-9.31S335,54.09,334.79,58.08Z" transform="translate(-12.56)"/><path class="cls-81" d="M302.06,152.75c-.15,1.28-2.55,1.48-2.91,3s2.25,2.15,2.25,2.15" transform="translate(-12.56)"/><path class="cls-82" d="M322.63,152.52a4.63,4.63,0,0,0-2.64.23s-2.15-9.11-2.66-9.41-14,2.86-21.39-1.13c-9-3.17-13.3-15.45-6-24.05s18.72,7.88,25.68,10,14.22-.72,16.38,9C333.59,144.54,326.68,148.15,322.63,152.52Z" transform="translate(-12.56)"/><g class="cls-83"><path class="cls-84" d="M284.37,125.58s-.81,4.73,4.78,8.64,25.25.73,31.45,5.94.75,15.14.75,15.14,7.17-1.07,6.59-9.53S317.11,135.68,304,131s-13.3-18.56-13.3-18.56,3.18,9.42,11.41,13.24,30.77,3.62,28.84,23.17" transform="translate(-12.56)"/></g><path class="cls-85" d="M322.63,152.52a4.63,4.63,0,0,0-2.64.23s-2.15-9.11-2.66-9.41-14,2.86-21.39-1.13c-9-3.17-13.3-15.45-6-24.05s18.72,7.88,25.68,10,14.22-.72,16.38,9C333.59,144.54,326.68,148.15,322.63,152.52Z" transform="translate(-12.56)"/><path class="cls-86" d="M261.33,126.4a27.81,27.81,0,0,0-17.38.76c-.11-3.16.3-4.27.58-4.92a3.55,3.55,0,0,1,1.77-1.14c2.8-1.12,8.3-2.08,12.61-.44a10.09,10.09,0,0,1,2.2,1.17A42,42,0,0,0,261.33,126.4Z" transform="translate(-12.56)"/><path class="cls-87" d="M342.51,74.92c-7.84-1-14.53,7.56-16.6,10.51-1.33-2.11-2.11-3.49-2-3.92a13.87,13.87,0,0,1,1.7-3c1.81-2.59,4.91-5.92,8.63-6.88a8.25,8.25,0,0,1,3.18-.18C338.71,71.66,340.47,72.89,342.51,74.92Z" transform="translate(-12.56)"/><path class="cls-88" d="M335.43,277.2c-8.58,3.13-18.69,4.9-27.82,2.85.21-5.12.16-11-.07-17.22,6.64-5.85,14.56-10.2,13.36-20.9-2-17.64.3-19.63,5.47-44.2a98.52,98.52,0,0,0,2.26-15.48,60.91,60.91,0,0,1,.77,6.36C330.39,203.29,337.2,254.25,335.43,277.2Z" transform="translate(-12.56)"/><path class="cls-89" d="M355.46,262.43c1.32,2-3.32,6.55-10.84,10.63,5.39-19-3.22-42.7-2.11-63.17s1.35-28.65,12.81-45.13a68.68,68.68,0,0,0,12-33.52c0,24.36-16.37,46.87-17.6,57.1S345.23,245,355.46,262.43Z" transform="translate(-12.56)"/><path class="cls-90" d="M319.37,173.79a9.85,9.85,0,0,0-3.31-1.87c-3.68-1.1-5.12.71-9.21.41-.58-.05-1.1-.11-1.56-.19-.1-.81-.22-1.62-.35-2.4,4.58-.08,9.45-2.3,13.12-7.64.63,3.68,2.3,6.42,2.51,7.31A8.65,8.65,0,0,1,319.37,173.79Z" transform="translate(-12.56)"/><path class="cls-91" d="M321.74,155.63c-1.65.23-1.79,2.39-.49,2.76S323.66,155.36,321.74,155.63Z" transform="translate(-12.56)"/><path class="cls-92" d="M320,152.63c-.23,1-.57,1.64-1.09,1.53-1.87-.41-3.12-3.41-6.6-4.5s-6.41,0-8-1.57-3.13-1.16-7.22-2.39a7,7,0,0,1-2.06-.93c.56-1.58,1-2.56,1-2.56,7.37,4,20.88.82,21.39,1.13S319.71,151.56,320,152.63Z" transform="translate(-12.56)"/><path class="cls-93" d="M251.9,166.05l0,1.13A5.72,5.72,0,0,1,251.9,166.05Z" transform="translate(-12.56)"/><path class="cls-94" d="M299.11,255.06c2.48,7.91-2.71,13.24-2.56,20a30.41,30.41,0,0,1-8.43-9.79c5.53-24.36,16-43.39.21-62.22-6.41-7.64-13-11.81-19.12-16.52,18.51,10.59,27,15.71,29.9,28.4S296,245,299.11,255.06Z" transform="translate(-12.56)"/></g><g class="cls-95"><path class="cls-96" d="M149.57,142.79c-9.27-4.5-21.14-.95-25.37,4.23s-4,18-8.33,25.65S96.09,191.5,102,202s56.48,10,59.89-.95-3-15-2.32-24.83,3.69-19.92-1.22-27.83S149.57,142.79,149.57,142.79Z" transform="translate(-12.56)"/><g class="cls-97"><g class="cls-98"><path class="cls-7" d="M151.67,147a3.24,3.24,0,0,0-1.8-3c-1.4-.78-3.11-.66-4.65-.6-3.07.12-6.34.36-9,2.12a14.13,14.13,0,0,0-4.85,6.54,65.84,65.84,0,0,0-2.86,9.44c-3.17,12.65-5.53,27.79-17.54,35.3-6,3.75-13.08,5.21-19.92,6.6-.36.07-.21.62.15.55,5.88-1.19,11.84-2.44,17.25-5.1a27.88,27.88,0,0,0,7.34-5.11,31.13,31.13,0,0,0,5.41-7.32c3.19-5.83,4.87-12.33,6.41-18.75.79-3.3,1.55-6.62,2.48-9.89a32.06,32.06,0,0,1,3.26-8.37,11.15,11.15,0,0,1,3.31-3.49,12.31,12.31,0,0,1,5.14-1.7,31.25,31.25,0,0,1,5.38-.27c1.75.07,4.07.94,3.88,3.08,0,.37.54.36.57,0Z" transform="translate(-12.56)"/><path class="cls-7" d="M149.62,147.14c-4.87,1.11-8.53,5-10.67,9.34-2.56,5.22-3.46,11.16-4.49,16.82-1.06,5.84-2.05,11.77-4.15,17.34a27.1,27.1,0,0,1-4,7.28,21.16,21.16,0,0,1-6.12,5.18c-5.8,3.31-12.54,4.17-19.06,5-.36,0-.37.62,0,.57,5.75-.72,11.61-1.46,17-3.85a24.45,24.45,0,0,0,6.59-4.27,22.68,22.68,0,0,0,4.6-6.22c2.63-5.11,3.83-10.87,4.9-16.48,1.12-5.89,1.89-12,3.84-17.66s5.64-11.11,11.72-12.48c.36-.09.21-.64-.15-.56Z" transform="translate(-12.56)"/><path class="cls-7" d="M150.74,147.49a6.26,6.26,0,0,1,6.22.74,11.42,11.42,0,0,1,3.94,5.61c1.79,4.77,2.33,9.94,3.06,14.95,1.27,8.7,3.49,18.77,11.71,23.57,4.06,2.37,9.35,2.81,13.48.37a.29.29,0,0,0-.29-.5c-4,2.34-9,1.91-12.9-.36a20.65,20.65,0,0,1-8.2-10c-2-4.65-2.74-9.72-3.45-14.7s-1.28-10-3.27-14.56a10.76,10.76,0,0,0-4.43-5.32,6.69,6.69,0,0,0-6.16-.35c-.33.16,0,.66.29.5Z" transform="translate(-12.56)"/><path class="cls-7" d="M150,147.33c-4.88-.82-9.73,1.25-13.35,4.46-4,3.56-6.54,8.41-8.9,13.13-2.43,4.87-4.82,9.91-8.7,13.83a26.73,26.73,0,0,1-13.25,7.3,17.15,17.15,0,0,1-9.58-.33,10.24,10.24,0,0,1-6-5.54c-.14-.33-.7-.19-.56.16,2,4.82,7.23,6.93,12.16,6.8A26.19,26.19,0,0,0,116.19,182c4.36-3.2,7.33-7.62,9.82-12.35,2.57-4.92,4.75-10.14,8.27-14.49,3.71-4.58,9.42-8.27,15.55-7.24.36.07.51-.49.15-.55Z" transform="translate(-12.56)"/><path class="cls-7" d="M135.44,144c-5.54,1.34-8.74,6.6-11.14,11.34a49.69,49.69,0,0,1-4.48,7.83,16,16,0,0,1-16.63,5.93.29.29,0,0,0-.15.55,16.65,16.65,0,0,0,15.48-4.14c4.32-4.22,5.87-10.31,9.34-15.14,1.92-2.68,4.46-5,7.74-5.81.36-.09.2-.64-.16-.56Z" transform="translate(-12.56)"/></g></g><path class="cls-99" d="M151.93,187.64a17.33,17.33,0,0,1-7.58,1.77c-6.15.05-12.25-2.95-14.12-8.62a6.76,6.76,0,0,1-.93.2,5.53,5.53,0,0,1-6.48-5.67,4.92,4.92,0,0,1,3.37-4.25c1.13-.41,1.54,3.79,2.72,4.14.78.24.7-1.84.74-3.4,0-.78.07-1.44.28-1.61.61-.51,9.82-4.4,11.41-7.47,1.48,3,2.09,3.12,3.22,2.76s6.91-4.71,7.62-7.16a13.44,13.44,0,0,0,2.93,7,9,9,0,0,0,.71.81S159.71,183.76,151.93,187.64Z" transform="translate(-12.56)"/><path class="cls-100" d="M142.46,307c-4.11,2.08-17.19,3.25-26.09-2-4.69-18.59.19-72.17,2-87.4a94.4,94.4,0,0,1,7.49-27.11l0,0c5.73-1.5,21.13,2.39,22.1,2.63,0,.07.72.69.75.79.12.67-.45,2.17-.4,5.15C147.64,220.69,137.93,291.61,142.46,307Z" transform="translate(-12.56)"/><path class="cls-101" d="M243.3,190.54c-.71,3.25-2.25,7.75-8,9.9a24.36,24.36,0,0,0-8.48,5.47,15.56,15.56,0,0,0-7.09-7.39c1.87-3.15,3.75-12.43,5.14-13.54s2.77,4.1,2.67,6.56,10.45-5.64,11.31-8.7,2.59-1.74,2.8,0S244,187.3,243.3,190.54Z" transform="translate(-12.56)"/><path class="cls-102" d="M44.79,271.55c-4.39,4.33-14.07,12.39-18.52,12.39-5.22,0-8.6-3.08-9.62-5.22s-4.09-2.76-4.09-4,11.77-2.87,15.55-5.33c-2-.2-4.81-4.09-4.29-5.21s2.55.1,7.16,0,5.92-1.82,5.92-1.82C38.51,264.26,42.5,266.71,44.79,271.55Z" transform="translate(-12.56)"/><path class="cls-103" d="M144.35,189.41c-.07.43-.11.87-.14,1.32-.17,2.36,0,4.85-1.39,5.89-5.52,3.91-12.72-2.27-14.08-5.15a1.43,1.43,0,0,1-.18-1.06c.59-1.4.72-7.07.74-9.42a6.76,6.76,0,0,0,.93-.2C132.1,186.46,138.2,189.46,144.35,189.41Z" transform="translate(-12.56)"/><path class="cls-2" d="M73.85,235C61.57,248.53,36,258.56,36.2,261a2.48,2.48,0,0,0,.7,1.35c1.61,1.89,5.6,4.34,7.89,9.18a16.62,16.62,0,0,1,1,2.76c30.5-7.56,52.47-33.56,52.47-33.56a126.75,126.75,0,0,1-.69,14.74c-.82,6.69-8.59,25.37-7.77,34,.5,5.28,10.33,11.24,17.89,14.31,4.75,1.93,8.61,2.73,8.71,1.52a1.17,1.17,0,0,1,0-.2c-4.69-18.59.19-72.17,2-87.4a94.4,94.4,0,0,1,7.49-27.11l0,0C87.57,198.87,86.13,221.51,73.85,235Z" transform="translate(-12.56)"/><path class="cls-2" d="M226.84,205.91a2.14,2.14,0,0,0-.1-.22,15.61,15.61,0,0,0-7-7.17,5.09,5.09,0,0,0-2.23-.69c-2.05.15-13.1,17.55-31.52,16.12S167,197.66,147.94,193.17l.09.24a22.93,22.93,0,0,1,.26,5.7c-.65,21.58-10.36,92.5-5.83,107.93a9.86,9.86,0,0,0,.36,1c2.46,3.27,13.41-8.19,14-14.74S148.55,259,151,250.92s11.66-10.17,7.57-26.13h0c16.79,15.95,51.15,15.25,69-15.09A9.25,9.25,0,0,0,226.84,205.91Z" transform="translate(-12.56)"/><g class="cls-104"><g class="cls-6"><circle class="cls-7" cx="73.9" cy="205.94" r="1.18"/><circle class="cls-7" cx="81.31" cy="205.94" r="1.18"/><circle class="cls-7" cx="88.71" cy="205.94" r="1.18"/><circle class="cls-7" cx="96.12" cy="205.94" r="1.18"/><circle class="cls-7" cx="103.52" cy="205.94" r="1.18"/><circle class="cls-7" cx="73.9" cy="212.11" r="1.18"/><circle class="cls-7" cx="81.31" cy="212.11" r="1.18"/><circle class="cls-7" cx="88.71" cy="212.11" r="1.18"/><circle class="cls-7" cx="96.12" cy="212.11" r="1.18"/><circle class="cls-7" cx="103.52" cy="212.11" r="1.18"/><circle class="cls-7" cx="73.9" cy="218.28" r="1.18"/><circle class="cls-7" cx="81.31" cy="218.28" r="1.18"/><circle class="cls-7" cx="88.71" cy="218.28" r="1.18"/><circle class="cls-7" cx="96.12" cy="218.28" r="1.18"/><circle class="cls-7" cx="103.52" cy="218.28" r="1.18"/><circle class="cls-7" cx="73.9" cy="224.45" r="1.18"/><circle class="cls-7" cx="81.31" cy="224.45" r="1.18"/><circle class="cls-7" cx="88.71" cy="224.45" r="1.18"/><circle class="cls-7" cx="96.12" cy="224.45" r="1.18"/><circle class="cls-7" cx="103.52" cy="224.45" r="1.18"/><circle class="cls-7" cx="73.9" cy="230.62" r="1.18"/><circle class="cls-7" cx="81.31" cy="230.62" r="1.18"/><circle class="cls-7" cx="88.71" cy="230.62" r="1.18"/><circle class="cls-7" cx="96.12" cy="230.62" r="1.18"/><circle class="cls-7" cx="103.52" cy="230.62" r="1.18"/><circle class="cls-7" cx="73.9" cy="236.8" r="1.18"/><circle class="cls-7" cx="81.31" cy="236.8" r="1.18"/><circle class="cls-7" cx="88.71" cy="236.8" r="1.18"/><circle class="cls-7" cx="96.12" cy="236.8" r="1.18"/><circle class="cls-7" cx="103.52" cy="236.8" r="1.18"/></g><g class="cls-6"><circle class="cls-7" cx="166.98" cy="218.87" r="1.18"/><circle class="cls-7" cx="174.39" cy="218.87" r="1.18"/><circle class="cls-7" cx="181.8" cy="218.87" r="1.18"/><circle class="cls-7" cx="189.2" cy="218.87" r="1.18"/><circle class="cls-7" cx="196.61" cy="218.87" r="1.18"/><circle class="cls-7" cx="166.98" cy="225.04" r="1.18"/><circle class="cls-7" cx="174.39" cy="225.04" r="1.18"/><circle class="cls-7" cx="181.8" cy="225.04" r="1.18"/><circle class="cls-7" cx="189.2" cy="225.04" r="1.18"/><circle class="cls-7" cx="196.61" cy="225.04" r="1.18"/><circle class="cls-7" cx="166.98" cy="231.22" r="1.18"/><circle class="cls-7" cx="174.39" cy="231.22" r="1.18"/><circle class="cls-7" cx="181.8" cy="231.22" r="1.18"/><circle class="cls-7" cx="189.2" cy="231.22" r="1.18"/><circle class="cls-7" cx="196.61" cy="231.22" r="1.18"/><circle class="cls-7" cx="166.98" cy="237.39" r="1.18"/><circle class="cls-7" cx="174.39" cy="237.39" r="1.18"/><circle class="cls-7" cx="181.8" cy="237.39" r="1.18"/><circle class="cls-7" cx="189.2" cy="237.39" r="1.18"/><circle class="cls-7" cx="196.61" cy="237.39" r="1.18"/><circle class="cls-7" cx="166.98" cy="243.56" r="1.18"/><circle class="cls-7" cx="174.39" cy="243.56" r="1.18"/><circle class="cls-7" cx="181.8" cy="243.56" r="1.18"/><circle class="cls-7" cx="189.2" cy="243.56" r="1.18"/><circle class="cls-7" cx="196.61" cy="243.56" r="1.18"/><circle class="cls-7" cx="166.98" cy="249.73" r="1.18"/><circle class="cls-7" cx="174.39" cy="249.73" r="1.18"/><circle class="cls-7" cx="181.8" cy="249.73" r="1.18"/><circle class="cls-7" cx="189.2" cy="249.73" r="1.18"/><circle class="cls-7" cx="196.61" cy="249.73" r="1.18"/></g><g class="cls-6"><circle class="cls-7" cx="35.77" cy="260" r="1.18"/><circle class="cls-7" cx="43.17" cy="260" r="1.18"/><circle class="cls-7" cx="50.58" cy="260" r="1.18"/><circle class="cls-7" cx="57.98" cy="260" r="1.18"/><circle class="cls-7" cx="65.39" cy="260" r="1.18"/><circle class="cls-7" cx="35.77" cy="266.17" r="1.18"/><circle class="cls-7" cx="43.17" cy="266.17" r="1.18"/><circle class="cls-7" cx="50.58" cy="266.17" r="1.18"/><circle class="cls-7" cx="57.98" cy="266.17" r="1.18"/><circle class="cls-7" cx="65.39" cy="266.17" r="1.18"/><circle class="cls-7" cx="35.77" cy="272.34" r="1.18"/><circle class="cls-7" cx="43.17" cy="272.34" r="1.18"/><circle class="cls-7" cx="50.58" cy="272.34" r="1.18"/><circle class="cls-7" cx="57.98" cy="272.34" r="1.18"/><circle class="cls-7" cx="65.39" cy="272.34" r="1.18"/><circle class="cls-7" cx="35.77" cy="278.52" r="1.18"/><circle class="cls-7" cx="43.17" cy="278.52" r="1.18"/><circle class="cls-7" cx="50.58" cy="278.52" r="1.18"/><circle class="cls-7" cx="57.98" cy="278.52" r="1.18"/><circle class="cls-7" cx="65.39" cy="278.52" r="1.18"/><circle class="cls-7" cx="35.77" cy="284.69" r="1.18"/><circle class="cls-7" cx="43.17" cy="284.69" r="1.18"/><circle class="cls-7" cx="50.58" cy="284.69" r="1.18"/><circle class="cls-7" cx="57.98" cy="284.69" r="1.18"/><circle class="cls-7" cx="65.39" cy="284.69" r="1.18"/><circle class="cls-7" cx="35.77" cy="290.86" r="1.18"/><circle class="cls-7" cx="43.17" cy="290.86" r="1.18"/><circle class="cls-7" cx="50.58" cy="290.86" r="1.18"/><circle class="cls-7" cx="57.98" cy="290.86" r="1.18"/><circle class="cls-7" cx="65.39" cy="290.86" r="1.18"/></g><g class="cls-6"><circle class="cls-7" cx="117.37" cy="259.96" r="1.18"/><circle class="cls-7" cx="124.78" cy="259.96" r="1.18"/><circle class="cls-7" cx="132.18" cy="259.96" r="1.18"/><path class="cls-7" d="M153.33,260a1.19,1.19,0,1,1-1.18-1.19A1.18,1.18,0,0,1,153.33,260Z" transform="translate(-12.56)"/><circle class="cls-7" cx="146.99" cy="259.96" r="1.18"/><circle class="cls-7" cx="117.37" cy="266.13" r="1.18"/><circle class="cls-7" cx="124.78" cy="266.13" r="1.18"/><circle class="cls-7" cx="132.18" cy="266.13" r="1.18"/><path class="cls-7" d="M153.33,266.13a1.19,1.19,0,1,1-1.18-1.19A1.18,1.18,0,0,1,153.33,266.13Z" transform="translate(-12.56)"/><circle class="cls-7" cx="146.99" cy="266.13" r="1.18"/><circle class="cls-7" cx="117.37" cy="272.3" r="1.18"/><circle class="cls-7" cx="124.78" cy="272.3" r="1.18"/><circle class="cls-7" cx="132.18" cy="272.3" r="1.18"/><path class="cls-7" d="M153.33,272.3a1.19,1.19,0,1,1-1.18-1.18A1.18,1.18,0,0,1,153.33,272.3Z" transform="translate(-12.56)"/><circle class="cls-7" cx="146.99" cy="272.3" r="1.18"/><circle class="cls-7" cx="117.37" cy="278.47" r="1.18"/><circle class="cls-7" cx="124.78" cy="278.47" r="1.18"/><circle class="cls-7" cx="132.18" cy="278.47" r="1.18"/><path class="cls-7" d="M153.33,278.47a1.19,1.19,0,1,1-1.18-1.18A1.18,1.18,0,0,1,153.33,278.47Z" transform="translate(-12.56)"/><circle class="cls-7" cx="146.99" cy="278.47" r="1.18"/><circle class="cls-7" cx="117.37" cy="284.64" r="1.18"/><circle class="cls-7" cx="124.78" cy="284.64" r="1.18"/><circle class="cls-7" cx="132.18" cy="284.64" r="1.18"/><path class="cls-7" d="M153.33,284.64a1.19,1.19,0,1,1-1.18-1.18A1.18,1.18,0,0,1,153.33,284.64Z" transform="translate(-12.56)"/><circle class="cls-7" cx="146.99" cy="284.64" r="1.18"/><circle class="cls-7" cx="117.37" cy="290.82" r="1.18"/><circle class="cls-7" cx="124.78" cy="290.82" r="1.18"/><circle class="cls-7" cx="132.18" cy="290.82" r="1.18"/><path class="cls-7" d="M153.33,290.82a1.19,1.19,0,1,1-1.18-1.19A1.18,1.18,0,0,1,153.33,290.82Z" transform="translate(-12.56)"/><circle class="cls-7" cx="146.99" cy="290.82" r="1.18"/></g></g><path class="cls-105" d="M227.55,209.71c-17.8,30.34-52.16,31-69,15.09.48.23,9.57,4.52,17.15,2.95,7.8-1.6,11.07,1.41,19.67,1s8.59-6.28,14.05-7.1,5.18-6.06,11.05-8.05c3.49-1.18,5.31-5,6.22-7.91a2.14,2.14,0,0,1,.1.22A9.25,9.25,0,0,1,227.55,209.71Z" transform="translate(-12.56)"/><path class="cls-106" d="M100.65,294.24c1.34,4.05,5,7,7.06,9.53-7.56-3.07-17.39-9-17.89-14.31-.82-8.6,7-27.28,7.77-34a126.75,126.75,0,0,0,.69-14.74s5.86-6.13,8.18-13c4,9.28-2.73,13.92-2,23.88S96,272.55,99.09,281,98.92,289.05,100.65,294.24Z" transform="translate(-12.56)"/><path class="cls-81" d="M147.46,171.92a3,3,0,0,0,1.25,2.87c1.55,1,.75,2.25-1.27,2.59" transform="translate(-12.56)"/><path class="cls-107" d="M126.11,174.41c-1.2.55-1.1,3,.66,3.38S127.8,173.64,126.11,174.41Z" transform="translate(-12.56)"/><path class="cls-108" d="M155.11,165.35c-1.76,1.32-4.59,1.66-7,1.58-4.48-.14-9.53,3-13.49,4.41a9.27,9.27,0,0,1-5,.47c0-.78.07-1.44.28-1.61.61-.51,9.82-4.4,11.41-7.47,1.48,3,2.09,3.12,3.22,2.76s6.91-4.71,7.62-7.16A13.44,13.44,0,0,0,155.11,165.35Z" transform="translate(-12.56)"/><path class="cls-109" d="M144.35,189.41c-.07.43-.11.87-.14,1.32-1,0-2-.1-3-.19-3.65-.36-3.46,2.2-8.67,1.32a22.33,22.33,0,0,0-3.85-.39,1.43,1.43,0,0,1-.18-1.06c.59-1.4.72-7.07.74-9.42a6.76,6.76,0,0,0,.93-.2C132.1,186.46,138.2,189.46,144.35,189.41Z" transform="translate(-12.56)"/></g><path class="cls-7" d="M146.44,79.29l-3.85,23.44-5.55.85L129.8,89.23l-2.73,15.89-5.52.86L110.78,84.8l5.35-.83,7.46,14.9,2.84-16.49,4.78-.74,7.54,15,2.75-16.61Z" transform="translate(-12.56)"/><path class="cls-7" d="M167.68,96.57l-.4,4.18-17.4-1.69,2.18-22.47,17,1.65-.41,4.17-11.81-1.15-.47,4.88,10.43,1-.39,4-10.43-1-.51,5.2Z" transform="translate(-12.56)"/><path class="cls-7" d="M171.42,80.28l5-1.67L182.22,96l10.72-3.61,1.36,4-15.67,5.28Z" transform="translate(-12.56)"/><path class="cls-7" d="M201.51,95.67a13.53,13.53,0,0,1-6-4.16,14.71,14.71,0,0,1-2.22-14.37,13.68,13.68,0,0,1,4.47-5.78A15.73,15.73,0,0,1,205,68.42a15.89,15.89,0,0,1,6.52.25,12.91,12.91,0,0,1,5.31,2.81l-3.44,4.31a8.74,8.74,0,0,0-7.26-2.11,9.15,9.15,0,0,0-4.3,1.79A7.83,7.83,0,0,0,199.21,79a9,9,0,0,0-.41,4.63,9.19,9.19,0,0,0,1.79,4.3,7.85,7.85,0,0,0,3.53,2.59,9.1,9.1,0,0,0,4.64.41,8.68,8.68,0,0,0,6.29-4.25l4.57,3.08a12.55,12.55,0,0,1-4.22,4.32,16.11,16.11,0,0,1-6.16,2.22A15.73,15.73,0,0,1,201.51,95.67Z" transform="translate(-12.56)"/><path class="cls-7" d="M225.58,88.3a9.85,9.85,0,0,1-2.65-17.18,11.93,11.93,0,0,1,10.7-1.65,10,10,0,0,1,5.84,13.07,9.61,9.61,0,0,1-3.19,4.1,11.95,11.95,0,0,1-10.7,1.66Zm7.91-4.56a5.68,5.68,0,0,0,1.81-2.5,7,7,0,0,0-1-6.32,5.64,5.64,0,0,0-2.48-1.84,6.47,6.47,0,0,0-6.1,1,5.65,5.65,0,0,0-1.81,2.49,6.89,6.89,0,0,0,1,6.33,5.65,5.65,0,0,0,2.47,1.83,6.17,6.17,0,0,0,3.18.31A6.1,6.1,0,0,0,233.49,83.74Z" transform="translate(-12.56)"/><path class="cls-7" d="M262.67,88.15l.86-13.51-7.36,10.69-2.35-.16-5.88-11.28-.88,13.23-4.89-.32,1.49-22.53,4.32.29,7.5,14.55,9.23-13.45L269,66l-1.43,22.53Z" transform="translate(-12.56)"/><path class="cls-7" d="M289.86,75.73l.64,4.15-17.28,2.67-3.44-22.31,16.86-2.61.64,4.15-11.73,1.81.75,4.84,10.35-1.6.62,4-10.35,1.6.79,5.16Z" transform="translate(-12.56)"/></g></g></g></svg>