<svg xmlns="http://www.w3.org/2000/svg" viewBox="0 0 26.24 26.15"><defs><style>.cls-1{fill:none;stroke:#fff;stroke-miterlimit:10;stroke-width:0.5px;}.cls-2{fill:#fff;}.cls-3{fill:#1d1d1b;}</style></defs><title>version blanca </title><g id="Capa_2" data-name="Capa 2"><g id="Capa_1-2" data-name="Capa 1"><path class="cls-1" d="M1.46,6.52A5.87,5.87,0,0,1,3,2.39,5.87,5.87,0,0,1,6.62.64c3-.19,5.49,1.17,6.35,3.29A5,5,0,0,1,13.09,7a8.89,8.89,0,0,1,5.42,1.59c4,2.94,5.13,9.95,2.09,17.12l-7,.13h-.46c0-1.16.47-1.53.68-1.66s.63-.14,1.44-.13A17.13,17.13,0,0,0,17.07,24a4.36,4.36,0,0,1-2.49-.9c-1.71-1.35-2.23-4.11-1.21-6.86-.31.2-3.06,2-3,4.61a3.11,3.11,0,0,0,1,2.42,2.6,2.6,0,0,0,1.49.5,2.46,2.46,0,0,1-2.34,1.86,2.53,2.53,0,0,1-2-1.18,5.61,5.61,0,0,1-.23-3.78,5.21,5.21,0,0,1,.85-1.61,30.65,30.65,0,0,0,3-3.74c1.12-1.68,1.18-2.17,1-2.45-.4-.61-2-.26-2.7-.11a14.45,14.45,0,0,0-2,.71,6,6,0,0,1-4.2-.3C2.22,12.23,1.12,9.52,1.46,6.52Z"/><path class="cls-2" d="M1.89,6.3A4.37,4.37,0,0,1,3.05,3.56a4.07,4.07,0,0,1,1.46-1,3,3,0,0,1,2.31.28A2.87,2.87,0,0,1,8.16,5.42a2,2,0,0,1-.63,1.66c-.33.24-.56.13-.79.4s-.08.82-.17,1.77a4.82,4.82,0,0,1-.2,1,3.41,3.41,0,0,1-2,2A3.62,3.62,0,0,1,.3,10.4,3,3,0,0,1,.18,8.06,3.12,3.12,0,0,1,1.89,6.3Z"/><ellipse class="cls-3" cx="4.37" cy="5.42" rx="0.69" ry="1.21"/><path class="cls-3" d="M.18,9.62a2.67,2.67,0,0,0,1.48-.27,2.84,2.84,0,0,0,1.11-1"/><path class="cls-2" d="M13.25,4.67c0,1.39-1.12,2.84-2.09,2.74s-1.6-1.75-1.51-3c.08-1,.63-2.35,1.51-2.45S13.25,3.29,13.25,4.67Z"/><path class="cls-1" d="M21.86,21.83A3.69,3.69,0,0,1,23,21.06a4.66,4.66,0,0,0,1.79-1.92L24.77,4.92a4.82,4.82,0,0,0-1.66-2.68,4.49,4.49,0,0,0-1.66-.82,3.1,3.1,0,0,0-2.09.45A3.34,3.34,0,0,0,18,4.41,2.8,2.8,0,0,0,18.57,6a2.86,2.86,0,0,0,1.4.89,1.61,1.61,0,0,0,1.41-.26,1.54,1.54,0,0,0,.55-1,1.45,1.45,0,0,0-.27-.58,1.63,1.63,0,0,0-1.06-.58.74.74,0,0,1-.2-.66.75.75,0,0,1,.88-.47,2.53,2.53,0,0,1,1.49,1.14,2.16,2.16,0,0,1,.29.9,2,2,0,0,1-.06.85,2.57,2.57,0,0,1-1.35,1.47,3.14,3.14,0,0,1-1,.34,4.31,4.31,0,0,1-2.44-.5A4.3,4.3,0,0,1,17,6.64a4.93,4.93,0,0,1-.5-2.22,4.48,4.48,0,0,1,.41-1.85,3.64,3.64,0,0,1,.26-.47,2.67,2.67,0,0,1,.42-.55,3.86,3.86,0,0,1,1.79-1,8.43,8.43,0,0,1,2.4-.34,5.21,5.21,0,0,1,2.59,1.3A5.29,5.29,0,0,1,26,4.86q0,7.23,0,14.46a6,6,0,0,1-2.35,3.1,5.88,5.88,0,0,1-2.36.89A2.62,2.62,0,0,1,21.86,21.83Z"/></g></g></svg>